<?xml version="1.0" standalone="no"?>
<!DOCTYPE svg PUBLIC "-//W3C//DTD SVG 20010904//EN"
 "http://www.w3.org/TR/2001/REC-SVG-20010904/DTD/svg10.dtd">
<svg version="1.0" xmlns="http://www.w3.org/2000/svg"
 width="180.000000pt" height="180.000000pt" viewBox="0 0 180.000000 180.000000"
 preserveAspectRatio="xMidYMid meet">
<metadata>
Created by potrace 1.14, written by Peter Selinger 2001-2017
</metadata>
<g transform="translate(0.000000,180.000000) scale(0.100000,-0.100000)"
fill="#000000" stroke="none">
<path d="M211 1784 c-89 -27 -155 -86 -187 -170 -18 -46 -19 -86 -19 -729 l0
-680 27 -51 c33 -62 103 -126 156 -142 29 -9 228 -12 723 -12 l684 0 50 24
c56 26 109 80 136 140 17 39 19 82 19 732 l0 690 -26 52 c-30 60 -79 107 -143
135 -45 20 -64 21 -715 21 -452 1 -680 -3 -705 -10z"/>
</g>
</svg>
